<?xml version="1.0" encoding="UTF-8"?>
<!DOCTYPE svg PUBLIC "-//W3C//DTD SVG 1.1//EN" "http://www.w3.org/Graphics/SVG/1.1/DTD/svg11.dtd">
<!-- Creator: CorelDRAW X6 -->
<svg xmlns="http://www.w3.org/2000/svg" xml:space="preserve" width="138px" height="95px" version="1.1" style="shape-rendering:geometricPrecision; text-rendering:geometricPrecision; image-rendering:optimizeQuality; fill-rule:evenodd; clip-rule:evenodd"
viewBox="0 0 40 28"
 xmlns:xlink="http://www.w3.org/1999/xlink">
 <defs>
  <style type="text/css">
   <![CDATA[
    .fil0 {fill:#F7CA19}
   ]]>
  </style>
 </defs>
 <g id="Layer_x0020_1">
  <metadata id="CorelCorpID_0Corel-Layer"/>
  <path class="fil0" d="M17 21c0,0 0,1 0,1 -1,1 -1,1 -1,1 -1,1 -2,2 -2,2 -1,1 -1,1 -2,2 0,1 0,1 0,1l8 0 8 0c0,-3 -4,-3 -5,-7 0,-1 0,-1 0,-1 0,0 5,-2 5,-2 4,-1 6,-3 9,-5 1,-1 4,-6 3,-9 0,-1 0,0 -1,-1l0 0c0,0 0,0 -1,0 -1,-1 -4,0 -6,-1 0,0 0,-1 0,-1 0,0 0,-1 0,-1l-3 0c4,0 1,0 -9,0l-12 0c-1,0 0,1 -1,3 -5,0 -8,-2 -7,4 1,3 2,5 3,6l2 2c1,0 2,1 4,2 3,2 4,2 7,3 1,0 1,0 1,1zm14 -8c3,-1 5,-5 5,-7l-4 0c0,2 0,3 0,6 -1,0 -1,1 -1,1zm-22 0c0,-1 -1,-2 -1,-3 0,-1 0,-2 -1,-4l-3 0c0,2 1,3 2,4 0,1 2,3 3,3z"/>
 </g>
</svg>
