<?xml version="1.0" encoding="utf-8"?>
<!-- Generator: Adobe Illustrator 21.0.0, SVG Export Plug-In . SVG Version: 6.00 Build 0)  -->
<svg version="1.1" id="perfect-hearttt" xmlns="http://www.w3.org/2000/svg" xmlns:xlink="http://www.w3.org/1999/xlink" x="0px"
	 y="0px" viewBox="0 0 265.2978 228.79" enable-background="new 0 0 265.2978 228.79" xml:space="preserve">
<g id="change1">
	<path fill="#F90041" d="M226.5405,9.3128C215.8119,3.3905,203.5182,0,190.3516,0c-23.2108,0-43.9405,13.5587-57.6593,30.1591
	C118.8882,13.5587,98.157,0,74.9006,0C61.8283,0,49.5349,3.3905,38.7589,9.3128C15.6386,22.1099,0,46.7004,0,74.9933
	c0,8.081,1.3312,15.8289,3.7147,23.0768C16.557,155.9086,132.6923,228.79,132.6923,228.79S248.6937,155.9086,261.585,98.0702
	c2.3835-7.2479,3.7128-14.9958,3.7128-23.0768C265.2978,46.7004,249.6607,22.157,226.5405,9.3128z"/></g>
</svg>
